<?xml version="1.0" encoding="UTF-8"?>
<svg width="1912px" height="381px" viewBox="0 0 1912 381" version="1.1" xmlns="http://www.w3.org/2000/svg" xmlns:xlink="http://www.w3.org/1999/xlink">
    <title>Group@2x</title>
    <g id="Page-1" stroke="none" stroke-width="1" fill="none" fill-rule="evenodd">
        <g id="white-with-color-Code-brew" transform="translate(-80.000000, -70.000000)" fill-rule="nonzero">
            <g id="Group" transform="translate(80.000000, 70.700000)">
                <polygon id="Path" fill="#FFFFFF" points="1079.41644 288.5 1087.81644 288.5 1087.81644 344.6 1119.41644 344.6 1119.41644 352.3 1079.41644 352.3"></polygon>
                <path d="M1164.81644,288.5 L1174.01644,288.5 L1197.11644,351.6 L1187.91644,351.6 L1181.01644,332.4 L1156.41644,332.4 L1149.51644,351.6 L1141.01644,351.6 L1164.81644,288.5 Z M1178.61644,326.2 L1169.41644,298.5 L1159.41644,326.2 L1178.61644,326.2 Z" id="Shape" fill="#FFFFFF"></path>
                <path d="M1222.51644,288.5 L1250.21644,288.5 C1256.41644,287.7 1262.51644,290 1266.41644,295.4 C1267.91644,297.7 1269.51644,301.6 1269.51644,304.6 C1269.51644,308.4 1268.71644,311.5 1266.41644,314.6 C1264.91644,316.1 1263.31644,317.7 1261.01644,318.4 C1263.31644,319.2 1266.41644,320.7 1267.91644,322.2 C1271.01644,325.3 1272.51644,329.1 1272.51644,333.7 C1272.51644,337.5 1271.01644,341.4 1268.71644,344.5 C1264.11644,349.9 1257.21644,353 1250.21644,352.2 L1223.31644,352.2 L1223.31644,288.3 L1222.51644,288.3 L1222.51644,288.5 Z M1247.11644,315.4 C1250.21644,315.4 1253.31644,315.4 1255.61644,313.9 C1258.71644,312.4 1261.01644,309.3 1260.21644,305.4 C1260.21644,301.6 1258.71644,298.5 1254.81644,296.9 C1251.71644,296.1 1249.41644,295.4 1246.31644,295.4 L1230.91644,295.4 L1230.91644,314.6 L1247.11644,315.4 L1247.11644,315.4 Z M1249.41644,344.6 C1254.01644,345.4 1257.91644,343.1 1260.91644,340 C1262.41644,337.7 1263.21644,335.4 1263.21644,333.1 C1263.21644,329.3 1260.91644,325.4 1257.01644,323.9 C1253.91644,323.1 1250.81644,322.4 1248.51644,322.4 L1230.81644,322.4 L1230.81644,344.7 L1249.41644,344.7 L1249.41644,344.6 Z" id="Shape_1_" fill="#FFFFFF"></path>
                <path d="M1304.81644,331.6 C1304.81644,334.7 1305.61644,337.8 1307.11644,340.1 C1310.21644,344.7 1316.31644,347 1321.71644,346.3 C1324.81644,346.3 1327.11644,345.5 1330.21644,344.8 C1334.81644,344 1337.91644,340.2 1337.91644,335.6 C1337.91644,332.5 1337.11644,329.4 1334.81644,327.9 C1331.71644,326.4 1328.61644,324.8 1324.81644,324.1 L1316.31644,322.6 C1312.51644,321.8 1308.61644,320.3 1304.81644,318.8 C1301.01644,316.5 1298.61644,311.9 1298.61644,307.3 C1298.61644,301.9 1300.11644,297.3 1304.01644,293.5 C1308.61644,289.7 1314.01644,287.3 1320.21644,288.1 C1326.41644,288.1 1331.71644,289.6 1336.41644,292.7 C1341.01644,296.5 1343.31644,301.9 1343.31644,308.1 L1335.61644,308.1 C1335.61644,305 1334.81644,302.7 1332.51644,300.4 C1329.41644,296.6 1324.81644,295 1320.21644,295 C1316.41644,295 1312.51644,295.8 1309.41644,298.1 C1307.11644,300.4 1306.31644,302.7 1306.31644,305.8 C1306.31644,308.9 1307.81644,311.2 1310.11644,312.7 C1313.91644,314.2 1317.81644,315.8 1320.91644,315.8 L1329.41644,318.1 C1332.51644,318.9 1336.31644,320.4 1338.61644,321.9 C1342.41644,325 1344.81644,329.6 1344.81644,335 C1345.61644,341.2 1342.51644,347.3 1337.11644,350.4 C1331.71644,353.5 1325.61644,355 1319.41644,355 C1312.51644,355 1306.31644,353.5 1301.71644,348.8 C1297.11644,345 1294.81644,338.8 1295.51644,332.6 L1304.81644,331.6 Z" id="Path_1_" fill="#FFFFFF"></path>
                <polygon id="Path_2_" fill="#7FC21E" points="203.91644 223.8 147.01644 161.5 203.91644 99.2 214.71644 109.2 167.01644 161.5 214.71644 213.8"></polygon>
                <polygon id="Path_3_" fill="#7FC21E" points="247.81644 223.8 237.01644 213.8 285.51644 161.5 237.01644 109.2 247.81644 99.2 305.51644 161.5"></polygon>
                <path d="M0.0164396969,162.3 L0.0164396969,162.3 C-0.783560303,126.1 27.7164397,96.1 63.1164397,95.4 C63.9164397,95.4 64.6164397,95.4 65.4164397,95.4 C84.6164397,94.6 102.31644,102.3 115.41644,116.2 L105.41644,127 C94.6164397,115.5 80.0164397,109.3 64.6164397,109.3 C36.9164397,109.3 14.6164397,132.4 14.6164397,160.8 C14.6164397,161.6 14.6164397,161.6 14.6164397,162.3 L14.6164397,162.3 C13.1164397,190 34.6164397,213.8 63.1164397,215.4 C63.9164397,215.4 63.9164397,215.4 64.6164397,215.4 C80.8164397,215.4 95.4164397,208.5 106.11644,196.9 L115.31644,206.9 C102.41644,221.5 83.9164397,230 63.9164397,229.2 C28.5164397,229.2 0.0164396969,200 0.0164396969,164.6 C0.0164396969,163.1 0.0164396969,162.3 0.0164396969,162.3 Z" id="Path_4_" fill="#FFFFFF"></path>
                <path d="M351.61644,97.7 L396.21644,97.7 C437.01644,97.7 464.71644,125.4 464.71644,161.6 L464.71644,161.6 C464.71644,197.8 437.01644,226.2 396.21644,226.2 L351.61644,226.2 L351.61644,97.7 Z M365.51644,110.8 L365.51644,212.3 L395.51644,212.3 C427.81644,212.3 448.61644,190 448.61644,161.5 L448.61644,161.5 C448.61644,133 427.81644,110.7 395.51644,110.7 L365.51644,110.7 L365.51644,110.8 Z" id="Shape_2_" fill="#FFFFFF"></path>
                <polygon id="Path_5_" fill="#FFFFFF" points="513.91644 97.7 607.01644 97.7 607.01644 110.8 527.81644 110.8 527.81644 154.6 597.81644 154.6 597.81644 167.7 527.81644 167.7 527.81644 213.1 607.81644 213.1 607.81644 226.2 513.91644 226.2"></polygon>
                <path d="M728.61644,97.7 L783.21644,97.7 C795.51644,96.9 807.81644,100.8 817.01644,109.2 C822.41644,114.6 825.51644,122.3 825.51644,130 L825.51644,130 C825.51644,143.1 817.81644,155.4 804.71644,160 C820.11644,164.6 832.41644,173.1 832.41644,190.8 L832.41644,190.8 C832.41644,213.1 813.91644,226.2 785.51644,226.2 L728.61644,226.2 L728.61644,97.7 L728.61644,97.7 Z M810.91644,131.5 C810.91644,118.4 800.91644,110.7 782.41644,110.7 L743.21644,110.7 L743.21644,155.3 L781.71644,155.3 C799.41644,154.6 810.91644,146.9 810.91644,131.5 L810.91644,131.5 Z M784.01644,167.7 L743.21644,167.7 L743.21644,213.1 L786.31644,213.1 C805.51644,213.1 817.81644,204.6 817.81644,190 L817.81644,190 C817.81644,175.4 806.31644,167.7 784.01644,167.7 Z" id="Shape_3_" fill="#FFFFFF"></path>
                <path d="M880.11644,97.7 L935.51644,97.7 C948.61644,96.9 962.41644,101.5 972.41644,110.8 C979.31644,117.7 982.41644,127 982.41644,136.2 L982.41644,136.2 C982.41644,157.7 967.81644,170 947.01644,173.9 L986.21644,226.2 L968.51644,226.2 L930.81644,176.2 L893.91644,176.2 L893.91644,226.2 L879.41644,226.2 L880.11644,97.7 Z M934.01644,163.1 C953.21644,163.1 967.11644,153.1 967.11644,136.9 L967.11644,136.9 C967.11644,120.7 954.81644,111.5 934.01644,111.5 L894.01644,111.5 L894.01644,163.8 L934.01644,163.1 Z" id="Shape_4_" fill="#FFFFFF"></path>
                <polygon id="Path_6_" fill="#FFFFFF" points="1031.71644 97.7 1124.81644 97.7 1124.81644 110.8 1046.31644 110.8 1046.31644 154.6 1116.31644 154.6 1116.31644 167.7 1046.31644 167.7 1046.31644 213.1 1125.51644 213.1 1125.51644 226.2 1030.91644 226.2 1030.91644 97.7"></polygon>
                <polygon id="Path_7_" fill="#FFFFFF" points="1163.21644 97.7 1179.41644 97.7 1216.31644 204.6 1251.71644 96.9 1264.01644 96.9 1299.41644 204.6 1336.31644 97.7 1351.71644 97.7 1305.61644 226.9 1292.51644 226.9 1257.11644 122.3 1221.71644 226.9 1209.41644 226.9"></polygon>
                <path d="M1597.11644,103.8 L1588.61644,94.6 C1590.91644,93.1 1608.61644,74.6 1591.71644,55.4 C1577.11644,39.2 1579.41644,13.9 1595.51644,-7.10542736e-15 L1595.51644,-7.10542736e-15 L1604.01644,8.5 L1600.21644,3.9 L1604.01644,8.5 C1601.71644,10.8 1584.01644,28.5 1600.91644,47.7 C1615.61644,64.6 1614.01644,89.2 1597.11644,103.8 L1597.11644,103.8 Z" id="Path_8_" fill="#FFFFFF"></path>
                <path d="M1649.41644,113.1 L1640.91644,103.9 C1643.21644,101.6 1660.91644,83.9 1644.01644,64.7 C1629.41644,48.5 1631.71644,23.2 1647.81644,9.3 L1647.81644,9.3 L1656.31644,17.8 L1652.51644,13.2 L1656.31644,17.8 C1654.01644,20.1 1636.31644,37.8 1653.21644,57 C1667.91644,73.8 1665.61644,98.5 1649.41644,113.1 L1649.41644,113.1 Z" id="Path_9_" fill="#FFFFFF"></path>
                <path d="M1723.31644,188.5 L1723.31644,180 C1711.81644,182.3 1700.21644,183.8 1687.91644,183.8 C1667.11644,183.8 1646.41644,180.7 1626.41644,175.3 C1587.21644,165.3 1564.11644,159.9 1548.71644,159.9 C1541.01644,159.1 1532.51644,161.4 1526.41644,166.8 C1523.31644,169.1 1521.81644,173 1521.81644,177.6 L1521.81644,190 C1521.81644,200 1518.71644,210 1513.31644,218.5 C1511.01644,223.1 1511.01644,227.7 1514.11644,232.3 C1519.51644,240.8 1522.61644,250.8 1523.31644,260.8 L1523.31644,325.4 C1523.31644,330.8 1524.11644,336.9 1525.61644,342.3 C1527.91644,346.9 1532.51644,350 1537.91644,350 L1707.91644,350 C1713.31644,350 1717.91644,347.7 1720.21644,343.1 C1722.51644,336.9 1724.01644,330.8 1724.01644,323.9 L1724.01644,259.3 C1724.01644,249.3 1727.11644,239.3 1732.51644,230.8 C1734.81644,227 1735.61644,221.6 1733.31644,217 C1726.41644,208.5 1723.31644,198.5 1723.31644,188.5 Z" id="Path_10_" fill="#7FC21F"></path>
                <path d="M1524.81644,79.2 C1507.91644,90 1497.91644,109.2 1499.41644,129.2 L1499.41644,190.7 C1499.41644,203.8 1484.81644,219.2 1479.41644,224.5 C1484.81644,229.1 1500.21644,244.5 1500.21644,257.6 L1500.21644,319.1 C1500.21644,346.8 1509.41644,359.9 1525.61644,369.9 L1521.01644,379.9 C1491.81644,363 1485.61644,349.9 1485.61644,299.1 L1485.61644,260 C1485.61644,246.2 1468.71644,231.5 1461.01644,224.6 C1468.71644,218.4 1484.81644,202.3 1484.81644,188.4 L1484.81644,147.6 C1484.81644,99.1 1491.71644,84.5 1520.21644,68.4 L1524.81644,79.2 Z" id="Path_11_" fill="#FFFFFF"></path>
                <path d="M1725.61644,68.5 C1754.11644,85.4 1761.01644,99.3 1761.01644,147.7 L1761.01644,187.7 C1761.01644,201.5 1777.21644,217.7 1784.81644,223.9 C1777.11644,230.8 1760.21644,245.4 1760.21644,259.3 L1760.21644,298.5 C1760.21644,349.3 1754.01644,363.1 1724.81644,379.3 L1720.21644,369.3 C1735.61644,359.3 1745.61644,346.2 1745.61644,318.5 L1745.61644,257 C1745.61644,243.2 1761.01644,228.5 1766.41644,223.2 C1761.01644,217.8 1746.41644,203.2 1746.41644,189.4 L1746.41644,129.4 C1746.41644,99.4 1733.31644,87.9 1721.01644,79.4 L1725.61644,68.5 Z" id="Path_12_" fill="#FFFFFF"></path>
                <polygon id="Path_13_" fill="#FFFFFF" points="1819.51644 132.3 1911.81644 224.6 1911.81644 224.6 1819.51644 316.9 1809.51644 306.9 1892.51644 224.6 1809.51644 142.3"></polygon>
            </g>
        </g>
    </g>
</svg>