<svg width="20" height="21" viewBox="0 0 20 21" xmlns="http://www.w3.org/2000/svg">
    <path d="M13.333 3.067V2.4a2 2 0 1 1 4 0v.667H18a1.998 1.998 0 0 1 2 2V18.4a1.998 1.998 0 0 1-2 2H2a1.998 1.998 0 0 1-2-2V5.067a1.998 1.998 0 0 1 2-2h.667V2.4a2 2 0 1 1 4 0v.667H8V2.4a2 2 0 1 1 4 0v.667h1.333zm5.334 6.666V18.4a.665.665 0 0 1-.667.667H2a.665.665 0 0 1-.667-.667V9.733h17.334zM4 17.067h1.333a.667.667 0 0 0 0-1.334H4a.667.667 0 0 0 0 1.334zm5.333 0h1.334a.667.667 0 0 0 0-1.334H9.333a.667.667 0 0 0 0 1.334zm5.334 0H16a.667.667 0 0 0 0-1.334h-1.333a.667.667 0 0 0 0 1.334zM4 13.067h1.333a.667.667 0 0 0 0-1.334H4a.667.667 0 0 0 0 1.334zm5.333 0h1.334a.667.667 0 0 0 0-1.334H9.333a.667.667 0 0 0 0 1.334zm5.334 0H16a.667.667 0 0 0 0-1.334h-1.333a.667.667 0 0 0 0 1.334zM17.333 4.4v.667a2 2 0 1 1-4 0V4.4H12v.667a2 2 0 1 1-4 0V4.4H6.667v.667a2 2 0 1 1-4 0V4.4H2a.665.665 0 0 0-.667.667V8.4h17.334V5.067A.665.665 0 0 0 18 4.4h-.667zM4.667 5.733A.667.667 0 0 1 4 5.067V2.4a.667.667 0 0 1 1.333 0v2.667a.667.667 0 0 1-.666.666zm10.666 0a.667.667 0 0 1-.666-.666V2.4A.667.667 0 0 1 16 2.4v2.667a.667.667 0 0 1-.667.666zm-5.333 0a.667.667 0 0 1-.667-.666V2.4a.667.667 0 0 1 1.334 0v2.667a.667.667 0 0 1-.667.666z" fill="#000" fill-rule="evenodd"/>
</svg>
