<svg width="33" height="33" viewBox="0 0 33 33" xmlns="http://www.w3.org/2000/svg">
    <g fill-rule="nonzero" fill="none">
        <path d="m8.69 28.54.54.268a14.153 14.153 0 0 0 7.27 1.963c7.875-.019 14.345-6.455 14.345-14.27a14.22 14.22 0 0 0-4.2-10.08 14.35 14.35 0 0 0-10.173-4.223c-7.84 0-14.29 6.402-14.29 14.18a14.553 14.553 0 0 0 2.158 7.676l.36.536-1.438 5.262L8.69 28.54z" fill="#00C063"/>
        <path d="M28.246 4.817A16.245 16.245 0 0 0 16.616 0h-.027C7.587 0 .179 7.352.179 16.286v.125a17.13 17.13 0 0 0 2.158 8.116L0 33l8.708-2.23a16.122 16.122 0 0 0 7.855 1.962c9.035-.049 16.442-7.442 16.437-16.41a16.134 16.134 0 0 0-4.754-11.505m-11.63 25.15a13.422 13.422 0 0 1-6.91-1.872l-.54-.268-5.185 1.338L5.33 24.08l-.36-.535a13.453 13.453 0 0 1-2.042-7.123C2.927 9 9.081 2.893 16.56 2.893c7.479 0 13.633 6.107 13.633 13.53 0 4.673-2.44 9.027-6.44 11.493a13.161 13.161 0 0 1-7.091 2.052m7.899-9.9-.989-.446s-1.437-.625-2.336-1.07c-.09 0-.18-.09-.27-.09a1.311 1.311 0 0 0-.629.179c-.191.111-.09.089-1.348 1.516a.495.495 0 0 1-.45.267h-.09a.687.687 0 0 1-.359-.178l-.449-.178a8.731 8.731 0 0 1-2.606-1.695c-.18-.178-.45-.357-.63-.535a9.99 9.99 0 0 1-1.707-2.14l-.09-.179a1.295 1.295 0 0 1-.18-.357.664.664 0 0 1 .09-.446c.082-.133.36-.446.63-.713.27-.268.27-.446.45-.624.186-.258.251-.583.179-.892a34.68 34.68 0 0 0-1.438-3.39 1.044 1.044 0 0 0-.63-.445h-.988c-.18 0-.36.089-.539.089l-.09.089c-.18.09-.36.268-.539.357-.18.089-.27.357-.45.535a4.526 4.526 0 0 0-.988 2.765c.01.706.163 1.404.45 2.051l.09.268a14.872 14.872 0 0 0 3.324 4.548l.36.357c.261.215.502.454.719.713a16.086 16.086 0 0 0 6.461 3.39c.27.089.63.089.899.178h.899c.47-.023.929-.145 1.348-.357.22-.099.43-.218.629-.356l.18-.179c.18-.178.359-.267.539-.446.175-.155.327-.335.45-.535.172-.4.293-.819.359-1.249v-.624a1.13 1.13 0 0 0-.27-.178" fill="#FFF"/>
    </g>
</svg>
